<?xml version="1.0" encoding="UTF-8" standalone="no"?>
<!-- Generator: Adobe Illustrator 16.0.0, SVG Export Plug-In . SVG Version: 6.00 Build 0)  -->

<svg
   version="1.1"
   id="Capa_1"
   x="0px"
   y="0px"
   width="612px"
   height="612px"
   viewBox="0 0 612 612"
   style="enable-background:new 0 0 612 612;"
   xml:space="preserve"
   sodipodi:docname="icon-cardapio-active.svg"
   inkscape:version="1.1.2 (0a00cf5339, 2022-02-04)"
   xmlns:inkscape="http://www.inkscape.org/namespaces/inkscape"
   xmlns:sodipodi="http://sodipodi.sourceforge.net/DTD/sodipodi-0.dtd"
   xmlns="http://www.w3.org/2000/svg"
   xmlns:svg="http://www.w3.org/2000/svg"><defs
   id="defs1047" /><sodipodi:namedview
   id="namedview1045"
   pagecolor="#ffffff"
   bordercolor="#666666"
   borderopacity="1.0"
   inkscape:pageshadow="2"
   inkscape:pageopacity="0.0"
   inkscape:pagecheckerboard="0"
   showgrid="false"
   inkscape:zoom="0.80555556"
   inkscape:cx="306"
   inkscape:cy="305.37931"
   inkscape:window-width="1322"
   inkscape:window-height="665"
   inkscape:window-x="0"
   inkscape:window-y="28"
   inkscape:window-maximized="1"
   inkscape:current-layer="Capa_1" />
<g
   id="g1012"
   style="fill:#217bbf;fill-opacity:1">
	<g
   id="Book"
   style="fill:#217bbf;fill-opacity:1">
		<g
   id="g1009"
   style="fill:#217bbf;fill-opacity:1">
			<path
   d="M577.028,43.714H454.629c-64.243,0-118.309,18.727-148.629,48.068c-30.32-29.341-84.386-48.068-148.628-48.068h-122.4     C15.702,43.714,0,59.398,0,78.685v402.171c0,19.305,15.702,34.971,34.971,34.971h122.4c46.634,0,97.273,20.039,115.44,38.994     c8.236,8.604,19.619,13.465,31.527,13.465h3.497c11.82,0,23.134-4.844,31.282-13.412c18.098-18.973,68.788-39.047,115.511-39.047     h122.399c19.287,0,34.972-15.666,34.972-34.971V78.685C612,59.398,596.315,43.714,577.028,43.714z M279.771,492.048     c-31.072-17.924-73.807-28.678-122.4-28.678H52.457V96.171h104.915c74.716,0,122.4,31.072,122.4,52.457V492.048z M559.543,463.37     H454.629c-48.593,0-91.328,10.754-122.4,28.678v-343.42c0-21.385,47.684-52.457,122.4-52.457h104.914V463.37z"
   id="path1007"
   style="fill:#217bbf;fill-opacity:1" />
		</g>
	</g>
</g>
<g
   id="g1014">
</g>
<g
   id="g1016">
</g>
<g
   id="g1018">
</g>
<g
   id="g1020">
</g>
<g
   id="g1022">
</g>
<g
   id="g1024">
</g>
<g
   id="g1026">
</g>
<g
   id="g1028">
</g>
<g
   id="g1030">
</g>
<g
   id="g1032">
</g>
<g
   id="g1034">
</g>
<g
   id="g1036">
</g>
<g
   id="g1038">
</g>
<g
   id="g1040">
</g>
<g
   id="g1042">
</g>
</svg>
