<?xml version="1.0" encoding="utf-8"?>
<svg version="1.1" id="Layer_1" x="0px" y="0px" width="24px" height="24px" viewBox="0 0 24 24" enable-background="new 0 0 24 24" xmlns="http://www.w3.org/2000/svg">
  <g id="g927">
    <g id="g907" style="stroke:none;stroke-opacity:1;fill:#999999;fill-opacity:0.58039218">
      <path d="M 12,24 C 5.4,24 0,18.6 0,12 0,5.4 5.4,0 12,0 18.6,0 24,5.4 24,12 24,18.6 18.6,24 12,24 Z M 12,2 C 6.5,2 2,6.5 2,12 2,17.5 6.5,22 12,22 17.5,22 22,17.5 22,12 22,6.5 17.5,2 12,2 Z" id="path905" style="stroke: none; stroke-opacity: 1; fill-opacity: 0.580392; fill: rgb(101, 103, 107);"/>
    </g>
    <g id="g915" style="fill:#999999;fill-opacity:0.58039218">
      <g id="g913" style="fill:#999999;fill-opacity:0.58039218">
        <path d="M11,18c-0.4,0-0.7-0.2-1-0.5c-0.5-0.7-0.1-1.7,1-4.4c0.2-0.4,0.4-0.9,0.6-1.3c-0.4,0.3-1,0.3-1.4-0.1     c-0.4-0.4-0.4-1,0-1.4C10.4,10.2,11.6,9,13,9c0.4,0,0.7,0.2,1,0.5c0.5,0.7,0.1,1.7-1,4.4c-0.2,0.4-0.4,0.9-0.6,1.3     c0.4-0.3,1-0.3,1.4,0.1c0.4,0.4,0.4,1,0,1.4C13.6,16.8,12.4,18,11,18z" id="path911" style="fill-opacity: 0.580392; fill: rgb(101, 103, 107);"/>
      </g>
    </g>
    <g id="g925" style="fill:#999999;fill-opacity:0.58039218;stroke:none;stroke-opacity:1;stroke-width:0.6;stroke-miterlimit:4;stroke-dasharray:none">
      <g id="g919" style="fill:#999999;fill-opacity:0.58039218;stroke:none;stroke-opacity:1;stroke-width:0.6;stroke-miterlimit:4;stroke-dasharray:none">
        <circle cx="13.5" cy="6.5" r="1.5" id="circle917" style="fill-opacity: 0.580392; stroke: none; stroke-opacity: 1; stroke-width: 0.6; stroke-miterlimit: 4; stroke-dasharray: none; fill: rgb(101, 103, 107);"/>
      </g>
      <g id="g923" style="fill:#999999;fill-opacity:0.58039218;stroke:none;stroke-opacity:1;stroke-width:0.6;stroke-miterlimit:4;stroke-dasharray:none">
        <path d="M13.5,8.5c-1.1,0-2-0.9-2-2s0.9-2,2-2s2,0.9,2,2S14.6,8.5,13.5,8.5z M13.5,5.5c-0.6,0-1,0.4-1,1s0.4,1,1,1s1-0.4,1-1     S14.1,5.5,13.5,5.5z" id="path921" style="fill-opacity: 0.580392; stroke: none; stroke-opacity: 1; stroke-width: 0.6; stroke-miterlimit: 4; stroke-dasharray: none; fill: rgb(101, 103, 107);"/>
      </g>
    </g>
  </g>
</svg>