<?xml version="1.0" encoding="UTF-8" standalone="no"?>
<!-- Generator: Adobe Illustrator 18.1.0, SVG Export Plug-In . SVG Version: 6.00 Build 0)  -->

<svg
   version="1.1"
   id="Layer_1"
   x="0px"
   y="0px"
   width="24px"
   height="24px"
   viewBox="0 0 24 24"
   enable-background="new 0 0 24 24"
   xml:space="preserve"
   sodipodi:docname="icon-about-active.svg"
   inkscape:version="1.1.2 (0a00cf5339, 2022-02-04)"
   xmlns:inkscape="http://www.inkscape.org/namespaces/inkscape"
   xmlns:sodipodi="http://sodipodi.sourceforge.net/DTD/sodipodi-0.dtd"
   xmlns="http://www.w3.org/2000/svg"
   xmlns:svg="http://www.w3.org/2000/svg"
   xmlns:ns="&amp;ns_sfw;"><defs
   id="defs932">
		
	</defs><sodipodi:namedview
   id="namedview930"
   pagecolor="#ffffff"
   bordercolor="#666666"
   borderopacity="1.0"
   inkscape:pageshadow="2"
   inkscape:pageopacity="0.0"
   inkscape:pagecheckerboard="0"
   showgrid="false"
   inkscape:zoom="20.541667"
   inkscape:cx="12"
   inkscape:cy="8.1298174"
   inkscape:window-width="1322"
   inkscape:window-height="665"
   inkscape:window-x="0"
   inkscape:window-y="28"
   inkscape:window-maximized="1"
   inkscape:current-layer="g927" />
<metadata
   id="metadata903">
	<ns:sfw>
		<ns:slices />
		<ns:sliceSourceBounds
   width="505"
   height="984"
   bottomLeftOrigin="true"
   x="0"
   y="-552" />
	</ns:sfw>
</metadata>
<g
   id="g927">
	<g
   id="g907"
   style="stroke:none;stroke-opacity:1;fill:#217bbf;fill-opacity:1">
			<path
   d="M 12,24 C 5.4,24 0,18.6 0,12 0,5.4 5.4,0 12,0 18.6,0 24,5.4 24,12 24,18.6 18.6,24 12,24 Z M 12,2 C 6.5,2 2,6.5 2,12 2,17.5 6.5,22 12,22 17.5,22 22,17.5 22,12 22,6.5 17.5,2 12,2 Z"
   id="path905"
   style="stroke:none;stroke-opacity:1;fill:#217bbf;fill-opacity:1" />
		</g>
	<g
   id="g915"
   style="fill:#217bbf;fill-opacity:1">
		<g
   id="g913"
   style="fill:#217bbf;fill-opacity:1">
			<path
   d="M11,18c-0.4,0-0.7-0.2-1-0.5c-0.5-0.7-0.1-1.7,1-4.4c0.2-0.4,0.4-0.9,0.6-1.3c-0.4,0.3-1,0.3-1.4-0.1     c-0.4-0.4-0.4-1,0-1.4C10.4,10.2,11.6,9,13,9c0.4,0,0.7,0.2,1,0.5c0.5,0.7,0.1,1.7-1,4.4c-0.2,0.4-0.4,0.9-0.6,1.3     c0.4-0.3,1-0.3,1.4,0.1c0.4,0.4,0.4,1,0,1.4C13.6,16.8,12.4,18,11,18z"
   id="path911"
   style="fill:#217bbf;fill-opacity:1" />
		</g>
	</g>
	<g
   id="g925"
   style="fill:#217bbf;fill-opacity:1">
		<g
   id="g919"
   style="fill:#217bbf;fill-opacity:1">
			<circle
   cx="13.5"
   cy="6.5"
   r="1.5"
   id="circle917"
   style="fill:#217bbf;fill-opacity:1" />
		</g>
		<g
   id="g923"
   style="fill:#217bbf;fill-opacity:1">
			<path
   d="M13.5,8.5c-1.1,0-2-0.9-2-2s0.9-2,2-2s2,0.9,2,2S14.6,8.5,13.5,8.5z M13.5,5.5c-0.6,0-1,0.4-1,1s0.4,1,1,1s1-0.4,1-1     S14.1,5.5,13.5,5.5z"
   id="path921"
   style="fill:#217bbf;fill-opacity:1" />
		</g>
	</g>
</g>
</svg>
