<?xml version="1.0" encoding="UTF-8" standalone="no"?>
<svg
   width="31.998"
   height="23"
   version="1.1"
   id="svg4"
   sodipodi:docname="refresh.svg"
   inkscape:version="1.1.2 (0a00cf5339, 2022-02-04)"
   xmlns:inkscape="http://www.inkscape.org/namespaces/inkscape"
   xmlns:sodipodi="http://sodipodi.sourceforge.net/DTD/sodipodi-0.dtd"
   xmlns="http://www.w3.org/2000/svg"
   xmlns:svg="http://www.w3.org/2000/svg">
  <defs
     id="defs8" />
  <sodipodi:namedview
     id="namedview6"
     pagecolor="#ffffff"
     bordercolor="#666666"
     borderopacity="1.0"
     inkscape:pageshadow="2"
     inkscape:pageopacity="0.0"
     inkscape:pagecheckerboard="0"
     showgrid="false"
     inkscape:zoom="21.434783"
     inkscape:cx="15.978702"
     inkscape:cy="11.523327"
     inkscape:window-width="1322"
     inkscape:window-height="665"
     inkscape:window-x="0"
     inkscape:window-y="28"
     inkscape:window-maximized="1"
     inkscape:current-layer="svg4" />
  <path
     fill="#39B29D"
     d="M25.913 8.143c-.438-4.563-4.237-8.143-8.914-8.143-3.619 0-6.718 2.148-8.146 5.23-.43-.136-.878-.23-1.353-.23-2.485 0-4.5 2.016-4.5 4.5 0 .494.099.961.246 1.404-1.933 1.127-3.246 3.197-3.246 5.595 0 3.59 2.91 6.5 6.5 6.5v.001h17.999v-.001c4.143 0 7.499-3.357 7.499-7.5 0-3.657-2.62-6.694-6.085-7.356zm-15.072 7.504l-1.86-1.847c-.268-.438-.049-.795.485-.795h.814c.071-3.327 2.754-6.005 6.062-6.005 1.677 0 3.193.688 4.291 1.799l-1.359 1.316c-.747-.755-1.792-1.217-2.932-1.222-2.295-.011-4.094 1.862-4.157 4.112h1.003c.532 0 .752.357.485.795l-1.861 1.847c-.267.438-.704.438-.971 0zm12.158-2.653h-.816c-.071 3.328-2.763 6.006-6.079 6.006-1.681 0-3.201-.688-4.303-1.799l1.363-1.315c.749.755 1.798 1.216 2.939 1.221 2.302.013 4.104-1.862 4.168-4.112h-1.004c-.536 0-.755-.357-.487-.795l1.865-1.847c.269-.437.706-.437.974 0l1.865 1.847c.269.437.05.794-.485.794z"
     id="path2"
     style="fill:#ffffff;fill-opacity:1" />
</svg>
