<?xml version="1.0" encoding="UTF-8" standalone="no"?>
<svg
   viewBox="137.4103 63.3278 186.85303 163.15672"
   width="186.85303"
   height="163.15671"
   version="1.1"
   id="svg22"
   sodipodi:docname="splash.svg"
   inkscape:version="1.1.2 (0a00cf5339, 2022-02-04)"
   xmlns:inkscape="http://www.inkscape.org/namespaces/inkscape"
   xmlns:sodipodi="http://sodipodi.sourceforge.net/DTD/sodipodi-0.dtd"
   xmlns="http://www.w3.org/2000/svg"
   xmlns:svg="http://www.w3.org/2000/svg">
  <defs
     id="defs26" />
  <sodipodi:namedview
     id="namedview24"
     pagecolor="#ffffff"
     bordercolor="#666666"
     borderopacity="1.0"
     inkscape:pageshadow="2"
     inkscape:pageopacity="0.0"
     inkscape:pagecheckerboard="0"
     showgrid="true"
     inkscape:zoom="1.5108176"
     inkscape:cx="48.649155"
     inkscape:cy="110.53618"
     inkscape:window-width="1366"
     inkscape:window-height="665"
     inkscape:window-x="0"
     inkscape:window-y="28"
     inkscape:window-maximized="1"
     inkscape:current-layer="svg22"
     showguides="false">
    <inkscape:grid
       type="xygrid"
       id="grid3400"
       originx="10.000007"
       originy="-6.0657642e-06" />
  </sodipodi:namedview>
  <g
     transform="matrix(0.137328,0,0,0.15113601,254.77537,59.655195)"
     style="fill:#ffffff"
     id="g6">
    <rect
       class="st0"
       height="17.1"
       width="419.5"
       x="86.5"
       y="262.20001"
       style="clip-rule:evenodd;fill:#ffffff;fill-rule:evenodd"
       id="rect2" />
    <path
       class="st0"
       d="m 122.7,253 c 0.3,-2.7 0.8,-6.9 1.6,-11.3 0.2,-0.9 0.3,-1.8 0.5,-2.8 0.2,-1 0.4,-2 0.7,-3 0.5,-2.1 1,-4.4 1.5,-6.8 0.3,-1.2 0.6,-2.5 0.9,-3.7 0.4,-1.3 0.7,-2.6 1.1,-3.9 0.8,-2.7 1.6,-5.5 2.4,-8.4 2,-5.8 4,-12.1 6.7,-18.5 0.7,-1.6 1.3,-3.3 2,-4.9 0.8,-1.6 1.5,-3.3 2.3,-4.9 0.8,-1.7 1.6,-3.3 2.3,-5 0.8,-1.7 1.7,-3.3 2.6,-5 0.9,-1.7 1.8,-3.4 2.7,-5.1 0.9,-1.7 2,-3.3 2.9,-5 1,-1.7 2,-3.3 3,-5 1.1,-1.7 2.2,-3.3 3.3,-4.9 1.1,-1.6 2.2,-3.3 3.3,-4.9 1.2,-1.6 2.4,-3.2 3.6,-4.8 2.3,-3.2 4.9,-6.3 7.4,-9.3 1.2,-1.6 2.6,-3 3.9,-4.5 1.3,-1.5 2.7,-2.9 4,-4.4 1.4,-1.4 2.8,-2.8 4.1,-4.2 1.4,-1.4 2.7,-2.8 4.2,-4.1 1.4,-1.3 2.8,-2.6 4.2,-4 1.4,-1.3 2.9,-2.5 4.3,-3.8 2.8,-2.5 5.8,-4.8 8.6,-7.1 1.4,-1.2 2.9,-2.2 4.3,-3.3 1.5,-1.1 2.9,-2.2 4.3,-3.1 2.9,-2 5.7,-4 8.5,-5.7 5.6,-3.6 11.1,-6.7 16.2,-9.5 5.1,-2.7 9.9,-5 14.2,-6.9 4.3,-1.9 8.1,-3.4 11.2,-4.6 6.3,-2.4 10,-3.3 10,-3.3 0,0 -3.6,1.3 -9.6,4.3 -6,2.9 -14.4,7.5 -23.9,13.9 -4.7,3.2 -9.8,6.8 -14.9,10.8 -2.6,2 -5.1,4.2 -7.8,6.4 -1.3,1.1 -2.6,2.3 -3.9,3.5 -1.3,1.2 -2.6,2.3 -3.9,3.6 -2.5,2.5 -5.2,5 -7.7,7.7 -1.2,1.3 -2.6,2.6 -3.8,4 -1.2,1.4 -2.4,2.8 -3.7,4.2 -1.3,1.4 -2.4,2.8 -3.6,4.3 -1.2,1.5 -2.4,2.9 -3.5,4.4 -1.1,1.5 -2.2,3 -3.4,4.5 -1.1,1.5 -2.3,3 -3.3,4.6 -2.1,3.2 -4.3,6.2 -6.1,9.5 -1,1.6 -1.9,3.2 -2.9,4.8 -0.9,1.6 -1.8,3.3 -2.7,4.9 -0.9,1.6 -1.8,3.2 -2.6,4.9 -0.8,1.7 -1.6,3.3 -2.3,4.9 -0.8,1.6 -1.6,3.2 -2.3,4.9 -0.7,1.6 -1.4,3.3 -2,4.9 -0.7,1.6 -1.4,3.2 -2,4.8 -0.6,1.6 -1.1,3.2 -1.7,4.8 -0.6,1.6 -1.1,3.2 -1.7,4.7 -0.5,1.6 -0.9,3.1 -1.4,4.7 -2,6.1 -3.2,12.1 -4.5,17.5 -0.5,2.8 -1,5.4 -1.4,7.9 -0.2,1.3 -0.5,2.5 -0.7,3.7 -0.2,1.2 -0.3,2.4 -0.5,3.5 -0.3,2.3 -0.6,4.4 -0.8,6.3 -0.1,1 -0.2,1.9 -0.4,2.8 -0.1,0.9 -0.1,1.8 -0.2,2.6 -0.3,3.5 -0.5,6.1 -0.6,7.9 h 344 c 0,-0.8 0,-1.6 0,-2.4 0,-107.6 -83.1,-195.3 -187,-199 V 40.4 c 10.2,-1 17.6,-4.2 17.6,-7.9 0,-4.5 -11,-8.2 -24.5,-8.2 -13.5,0 -24.5,3.7 -24.5,8.2 0,3.7 7.4,6.9 17.6,7.9 v 11.2 c -103.9,3.7 -187,91.4 -187,199 0,0.8 0,1.6 0,2.4 z M 374.4,89.7 c 1.5,0.5 3.3,1.3 5.3,2.2 2,0.9 4.3,2 6.7,3.3 2.4,1.3 5,2.8 7.6,4.5 1.3,0.8 2.7,1.8 4,2.7 0.7,0.5 1.3,1 2,1.5 0.7,0.5 1.4,1 2,1.5 1.3,1.1 2.7,2.2 4.1,3.3 0.7,0.6 1.4,1.2 2,1.8 0.7,0.6 1.3,1.2 2,1.9 0.7,0.6 1.3,1.3 2,1.9 0.6,0.7 1.3,1.3 1.9,2 0.6,0.7 1.2,1.4 1.9,2.1 0.6,0.7 1.3,1.4 1.8,2.1 1.2,1.5 2.4,2.9 3.5,4.4 0.6,0.8 1.1,1.5 1.7,2.3 0.5,0.8 1,1.5 1.6,2.3 0.5,0.8 1,1.5 1.5,2.3 0.5,0.8 0.9,1.6 1.4,2.4 0.5,0.8 1,1.6 1.4,2.4 0.4,0.8 0.8,1.6 1.3,2.4 0.4,0.8 0.9,1.6 1.2,2.4 0.4,0.8 0.7,1.6 1.1,2.4 0.4,0.8 0.7,1.6 1.1,2.3 0.3,0.8 0.6,1.6 0.9,2.3 1.3,3 2.2,6 3.2,8.7 0.4,1.4 0.8,2.7 1.1,4 0.2,0.6 0.4,1.2 0.5,1.8 0.1,0.6 0.3,1.2 0.4,1.8 0.3,1.1 0.5,2.2 0.7,3.2 0.1,0.5 0.2,1 0.3,1.4 0.1,0.5 0.2,0.9 0.2,1.3 0.6,3.3 0.9,6.6 0.9,6.6 L 430.6,177 c 0,0 -0.1,-1.7 -0.4,-4.8 0,-0.4 -0.1,-0.8 -0.1,-1.2 -0.1,-0.4 -0.1,-0.9 -0.2,-1.3 -0.1,-0.9 -0.2,-1.9 -0.4,-3 -0.1,-0.5 -0.1,-1.1 -0.2,-1.6 -0.1,-0.6 -0.2,-1.1 -0.3,-1.7 -0.2,-1.2 -0.4,-2.4 -0.7,-3.7 -0.6,-2.5 -1.2,-5.4 -2.1,-8.2 -0.2,-0.7 -0.4,-1.5 -0.7,-2.2 -0.3,-0.7 -0.5,-1.5 -0.8,-2.2 -0.3,-0.7 -0.5,-1.5 -0.8,-2.3 -0.3,-0.8 -0.6,-1.5 -0.9,-2.3 -0.3,-0.8 -0.6,-1.5 -1,-2.3 -0.3,-0.8 -0.7,-1.5 -1.1,-2.3 -0.4,-0.8 -0.7,-1.5 -1.1,-2.3 -0.4,-0.8 -0.8,-1.5 -1.2,-2.3 -0.4,-0.8 -0.8,-1.5 -1.3,-2.3 -0.5,-0.7 -0.9,-1.5 -1.4,-2.3 -0.9,-1.5 -1.9,-3 -2.9,-4.5 -0.5,-0.7 -1,-1.4 -1.5,-2.2 -0.5,-0.7 -1.1,-1.4 -1.6,-2.1 -0.6,-0.7 -1.1,-1.4 -1.7,-2.1 -0.6,-0.7 -1.1,-1.4 -1.7,-2 -0.6,-0.7 -1.2,-1.3 -1.7,-2 -0.6,-0.7 -1.2,-1.3 -1.8,-1.9 -1.2,-1.3 -2.4,-2.4 -3.6,-3.6 -0.6,-0.6 -1.2,-1.1 -1.8,-1.7 -0.6,-0.5 -1.2,-1.1 -1.8,-1.6 -1.2,-1 -2.4,-2.1 -3.6,-3 -2.4,-1.9 -4.8,-3.6 -7,-5.1 -4.5,-3 -8.4,-5.1 -11.2,-6.5 -2.8,-1.4 -4.5,-2 -4.5,-2 0,0 2,0.2 4.9,1.3 z"
       style="clip-rule:evenodd;fill:#ffffff;fill-rule:evenodd"
       id="path4" />
  </g>
  <g
     transform="matrix(1.8670111,0,0,1.8602281,128.36685,57.203748)"
     style="fill:#ffffff"
     id="g12">
    <circle
       cx="64.199997"
       cy="13"
       r="8"
       style="fill:#ffffff"
       id="circle8" />
    <path
       d="m 83.6,24 c -2,-1 -4.4,-0.3 -5.4,1.7 L 74.7,32.3 59.3,22.6 C 58.7,22.2 58,22 57.2,22 h -17 c -1.5,0 -2.8,0.8 -3.5,2.1 l -6.5,12 c -1.1,1.9 -0.3,4.4 1.6,5.4 0.6,0.3 1.3,0.5 1.9,0.5 1.4,0 2.8,-0.8 3.5,-2.1 L 42.6,30 h 5.9 L 30.8,63 H 14.2 c -2.2,0 -4,1.8 -4,4 0,2.2 1.8,4 4,4 h 19 c 1.5,0 2.8,-0.8 3.5,-2.1 l 7,-12.9 11.5,10.7 -0.9,20.1 c -0.2,2.2 1.5,4.1 3.7,4.2 0.1,0 0.1,0 0.2,0 2.1,0 3.9,-1.7 4,-3.8 l 1,-22 C 63.3,64 62.8,62.9 61.9,62.1 l -9.7,-9 10.2,-19 11.6,7.3 c 0.9,0.6 2.1,0.8 3.2,0.5 1.1,-0.3 2,-1 2.5,-2 l 5.5,-10.5 c 1.1,-1.9 0.4,-4.3 -1.6,-5.4 z"
       style="fill:#ffffff"
       id="path10" />
  </g>
  <rect
     style="opacity:0.99;fill:#ffffff;stroke:none;stroke-width:2.1;stroke-linecap:round;stroke-linejoin:round;stroke-miterlimit:4;stroke-dasharray:none;paint-order:stroke fill markers"
     id="rect1078"
     width="50"
     height="5"
     x="147.41029"
     y="83.327797" />
  <rect
     style="opacity:0.99;fill:#ffffff;stroke:none;stroke-width:2.1;stroke-linecap:round;stroke-linejoin:round;stroke-miterlimit:4;stroke-dasharray:none;paint-order:stroke fill markers"
     id="rect1262"
     width="40"
     height="5"
     x="137.41029"
     y="128.32779" />
  <rect
     style="opacity:0.99;fill:#ffffff;stroke:none;stroke-width:2.1;stroke-linecap:round;stroke-linejoin:round;stroke-miterlimit:4;stroke-dasharray:none;paint-order:stroke fill markers"
     id="rect1526"
     width="60"
     height="5"
     x="157.41029"
     y="203.3278" />
</svg>
